inDegrees=no
num_controls=7
num_derivatives=13
num_iterations=101
num_multipliers=7
num_parameters=0
num_slacks=7
num_states=26
objective=0.510199
objective_accelerations=0.039896
objective_balance=0.003089
objective_effort=0.029688
objective_height=0.324890
objective_ligament=0.112635
solver_duration=1305.581459
status=Solve_Succeeded
success=true
DataType=double
version=3
OpenSimVersion=4.5
endheader
time	/jointset/ground_pelvis/pelvis_tilt/value	/jointset/ground_pelvis/pelvis_tx/value	/jointset/ground_pelvis/pelvis_ty/value	/jointset/hip_l/hip_flexion_l/value	/jointset/hip_l/hip_adduction_l/value	/jointset/hip_l/hip_rotation_l/value	/jointset/back/lumbar_extension/value	/jointset/patellofemoral_l/patellar_flexion_l/value	/jointset/knee_l/knee_flexion_l/value	/jointset/knee_l/knee_adduction_l/value	/jointset/knee_l/knee_rotation_l/value	/jointset/ankle_l/ankle_angle_l/value	/jointset/subtalar_l/subtalar_angle_l/value	/jointset/ground_pelvis/pelvis_tilt/speed	/jointset/ground_pelvis/pelvis_tx/speed	/jointset/ground_pelvis/pelvis_ty/speed	/jointset/hip_l/hip_flexion_l/speed	/jointset/hip_l/hip_adduction_l/speed	/jointset/hip_l/hip_rotation_l/speed	/jointset/back/lumbar_extension/speed	/jointset/patellofemoral_l/patellar_flexion_l/speed	/jointset/knee_l/knee_flexion_l/speed	/jointset/knee_l/knee_adduction_l/speed	/jointset/knee_l/knee_rotation_l/speed	/jointset/ankle_l/ankle_angle_l/speed	/jointset/subtalar_l/subtalar_angle_l/speed	/forceset/tau_hip_flexion_l	/forceset/tau_hip_adduction_l	/forceset/tau_hip_rotation_l	/forceset/tau_knee_flexion_l	/forceset/tau_ankle_angle_l	/forceset/tau_subtalar_angle_l	/forceset/tau_lumbar_extension	lambda_cid13_p0	lambda_cid13_p1	lambda_cid13_p2	lambda_cid13_p3	lambda_cid13_p4	lambda_cid13_p5	lambda_cid14_p0	/jointset/ground_pelvis/pelvis_tilt/accel	/jointset/ground_pelvis/pelvis_tx/accel	/jointset/ground_pelvis/pelvis_ty/accel	/jointset/hip_l/hip_flexion_l/accel	/jointset/hip_l/hip_adduction_l/accel	/jointset/hip_l/hip_rotation_l/accel	/jointset/back/lumbar_extension/accel	/jointset/patellofemoral_l/patellar_flexion_l/accel	/jointset/knee_l/knee_flexion_l/accel	/jointset/knee_l/knee_adduction_l/accel	/jointset/knee_l/knee_rotation_l/accel	/jointset/ankle_l/ankle_angle_l/accel	/jointset/subtalar_l/subtalar_angle_l/accel	gamma_cid13_p0	gamma_cid13_p1	gamma_cid13_p2	gamma_cid13_p3	gamma_cid13_p4	gamma_cid13_p5	gamma_cid14_p0
0	-0.01751298045763481	0.04748406450959863	0.9232739021947929	0.3085816938045678	-0.261419420121107	-0.3174806696338826	-0.3879492264334186	0.2499269421184934	0.2499269421184919	-0.1026476379210315	-0.1745272072897739	-0.0008036623358878681	0.0362320383699118	0	0	0	0	0	0	0	0	0	0	0	0	0	0.108364449462659	-0.0294328633874855	-0.01863616297357668	-0.3275961328298786	0.3318372961929982	-0.0688084099123643	-0.01114160845540059	59.5129809000235	19.46512552300996	-3.559779471904715	-18.13761654828174	-640.4639349272089	-40.47107194541421	-22.93764695979545	-1.510871444945191	-1.431623367375881	-0.7554867001918329	7.638380261844742	-0.352927727527667	2.012158596093327	-6.078116116951465	6.887201874235007	6.887201874236043	1.616148177254904	-0.03241435013968205	1.236616809640022	0.06522488937345533	8.59855629538045e-09	1.256986477994836e-07	-8.047988395075243e-08	2.170786772235246e-08	-2.212855696408537e-08	6.933742841878619e-08	2.424167129274088e-08
0.01	-0.01758643734050776	0.04741219393478654	0.9232365172385806	0.3089582021380793	-0.2614384139266261	-0.3173778370635239	-0.3882583624149596	0.2502661954899529	0.250266195489949	-0.1025718156350891	-0.1745260620106988	-0.000744837529659849	0.03623274437724241	-0.01475243928946606	-0.01441669807404344	-0.007490187844088039	0.07528816490009176	-0.003911144652725548	0.02057081721046964	-0.06206451008903763	0.06767882425685146	0.06767882425685273	0.01485727285501293	0.0002201064687149263	0.01157607444226122	-4.674266178534388e-05	0.1122012992189059	-0.03732584771090517	-0.01879232945209642	-0.3325910736576534	0.335099870536727	-0.06429955205600094	-0.01436843988568464	60.78351181699117	17.41506760186223	-3.382121094149986	-18.4792323003715	-639.7776187674592	-45.35172255189464	-22.9419926580849	-1.466588031795534	-1.453076152756599	-0.7477687424846622	7.472010070494736	-0.4270731400836106	2.08020798647857	-6.306215521952531	6.682440347856635	6.682440347856132	1.374452459400702	0.04786248633576044	1.089772626169176	-0.06782572672322033	-4.177273701624086e-09	5.745823667472305e-08	-6.916768295333258e-09	1.739204967907834e-08	-4.072107266154891e-08	1.301477486331577e-08	8.736903842406493e-09
0.02	-0.01780925018844463	0.04719487975416603	0.923123833620734	0.3100871872138737	-0.2614998922398601	-0.3170691633804704	-0.3891952629108052	0.2512770806332695	0.2512770806332691	-0.1023566334966441	-0.174522987798763	-0.0005759180060792069	0.03622734258140124	-0.02987119301286081	-0.02908872116168219	-0.01505973232687215	0.1504953484563082	-0.008496901542998637	0.04116822253913057	-0.1255529028609711	0.1343263543715598	0.1343263543715576	0.02787197050107379	0.0003857865757757335	0.02201894347052165	-0.001221560634319738	0.1160381489751711	-0.04521883203432177	-0.0189484959305997	-0.3375860144854142	0.338362444880464	-0.05979069419963161	-0.01759527131595854	62.11226480965026	15.35847103770058	-3.207594789833535	-18.89627307846892	-638.2200557513679	-50.14392393372988	-22.95494231895372	-1.584134331730876	-1.482688370095005	-0.7713580279310502	7.622183993069694	-0.4878501750371815	2.017476219731549	-6.362892653530616	6.680943045806406	6.680943045806478	1.247633135464483	-0.04329962247054976	1.00997572683979	-0.1603901727763881	-1.695310369862862e-08	-1.078217445003752e-08	6.664634736008591e-08	1.307623163580421e-08	-5.931358835901245e-08	-4.330787869215465e-08	-6.767863607927892e-09
0.03	-0.01818230178837979	0.04683073505583494	0.9229355149489429	0.3119622714089607	-0.2616095786396729	-0.3165573569736897	-0.390763651379887	0.2529473112588136	0.2529473112588128	-0.1020189244570091	-0.1745202658649164	-0.0003070842074540243	0.03620608423587158	-0.04451895386298598	-0.04366843096762595	-0.02257208597571468	0.223974518393867	-0.01344214427413727	0.06112029867101058	-0.1873166643159729	0.1993734192500844	0.1993734192500941	0.03952366422648788	0.0001879138965745193	0.03169107492856024	-0.003052648528339207	0.09694226177978084	-0.02848030168889786	-0.01752059403113105	-0.3116309362674644	0.3072777043372903	-0.0603252220306216	-0.002918867789763343	51.98449771332189	16.82538764442339	-2.82633455911239	-13.03505986241459	-640.606891038386	-44.57400576640398	-22.97625969859358	-1.372071005780713	-1.434841557682953	-0.7363985628632096	7.12873640957383	-0.4981330982058911	1.973147829552545	-5.961898895525827	6.364636902057949	6.364636902059609	1.102015919489331	-0.003621779718960788	0.9373198327570091	-0.1978550160346214	-2.79657833481677e-08	3.840179231920251e-09	8.182313002469568e-08	3.13445337784075e-08	-1.298730831048816e-07	-5.213357123554253e-08	-5.021941821746524e-09
0.04	-0.01869522580563953	0.04632294740507627	0.9226730278347628	0.3145557378865196	-0.2617687718220076	-0.3158482149016634	-0.3929254336643264	0.2552576222717793	0.2552576222717802	-0.1015690827944396	-0.1745186407956796	5.676850124600057e-05	0.03616583762773763	-0.05784567647820735	-0.05781731164719921	-0.02989342080465067	0.2941718049504098	-0.01839825804742544	0.08063535558834364	-0.244231665932601	0.2623424318559078	0.2623424318559283	0.05029849508827965	0.000166413654410103	0.04102272548544279	-0.005019213155155777	0.07784637458439747	-0.01174177134347324	-0.01609269213165339	-0.2856758580495076	0.2761929637941209	-0.06085974986160938	0.01175753573643559	41.91145463090442	18.28735903255985	-2.449579934378454	-7.246755262914481	-642.1805843620228	-38.92130479268855	-23.00539321389344	-1.319926684750055	-1.396522544820969	-0.7331542639497465	6.965807316866494	-0.4900243834670963	1.930072376822112	-5.393140685855856	6.265332591266159	6.265332591266044	1.072260562740015	-0.008025135063253721	0.9418795466085081	-0.1874855193358452	-3.894210938229513e-08	2.017104352844953e-08	9.579607077196919e-08	5.007848788360621e-08	-2.015040619548417e-07	-5.997994499517613e-08	-2.920335721410182e-09
0.05	-0.01933658071702758	0.04567535700465879	0.9223378245828917	0.3178383185604085	-0.2619780322382591	-0.3149455457372419	-0.395638159969705	0.2581889625303364	0.2581889625303378	-0.1010163653471021	-0.1745164750164913	0.0005120437389240826	0.03610469323447323	-0.07035304782607919	-0.07167320466741937	-0.03715512415859937	0.3620852066442322	-0.02350921938178585	0.09984246836394882	-0.2981375338582112	0.3237067842315396	0.3237067842315571	0.06002085095702601	0.0002510053888751748	0.04993786168913891	-0.007302975216555703	0.07205583475575372	-0.01068121751380705	-0.01558337546733641	-0.2792335601375149	0.2669833468060672	-0.05778526425158322	0.01607400761865956	39.14110409772062	17.33695201230532	-2.183577168109224	-5.742339189529219	-641.6396765110104	-40.06799955883007	-23.04159681909328	-1.205300899875879	-1.375977948407675	-0.7239034391375136	6.665236472148892	-0.5299546657240023	1.907614970330551	-5.362900653128853	6.039161784229569	6.039161784229111	0.8886135904499654	0.01435697058639212	0.8521601574631722	-0.2628319890439668	-4.486640197219886e-08	-5.792859094353066e-08	1.243875285296807e-07	4.56364383878701e-08	-2.303937676539523e-07	-8.818096164620599e-08	-1.450480943601617e-08
0.06	-0.02010084104990657	0.04489003662048173	0.9219297592838774	0.3217922592265388	-0.2622400667993148	-0.3138524885965843	-0.3988846631157821	0.2617273813573543	0.2617273813573571	-0.1003731462427753	-0.1745139321913788	0.001053636238681929	0.03601790913269439	-0.08242676077675756	-0.08536330839911631	-0.04446583023333799	0.4284438033983965	-0.02895308700828776	0.1187129508355883	-0.350987034072423	0.3837581455478868	0.3837581455479014	0.06839882648609247	0.0002418228387399059	0.05828617790135449	-0.01014715485803297	0.06626529492711949	-0.009620663684140586	-0.01507405880301914	-0.2727912622255125	0.2577737298180186	-0.05471077864155489	0.02039047950088842	36.42019727858153	16.38058290148295	-1.919701257362201	-4.301645552970576	-640.3611697036711	-41.13871597109838	-23.08417691108211	-1.233195005311298	-1.363364687116395	-0.7429548081077341	6.654846328934901	-0.5566056418954037	1.862746316028916	-5.18186714357616	6.002734379409266	6.002734379409181	0.8033844948040314	-0.02677999198338384	0.8285155483123198	-0.2995690353513512	-5.057797736445106e-08	-1.400042464162902e-07	1.535945027930949e-07	4.021855716156832e-08	-2.574838407993428e-07	-1.17239015892663e-07	-2.666553914283025e-08
0.07000000000000001	-0.0209835861847523	0.04396951321713984	0.9214484377632707	0.3264005375326906	-0.2625577987036961	-0.3125733196521404	-0.402651151285652	0.2658590888984346	0.2658590888984357	-0.09965225334487318	-0.1745124057176356	0.001676787840985918	0.03590065094332057	-0.09402293935426326	-0.09862745684206141	-0.05179437389223071	0.4927887212280993	-0.03460730334333692	0.137054321768443	-0.4018336658280185	0.4423002776330325	0.4423002776330411	0.0756109293018042	8.046058468319159e-05	0.06634590975172776	-0.01331902772230241	0.05710164851581249	-0.007305159774498981	-0.01442887513172427	-0.2642751861992922	0.2473641737541082	-0.05115770239340363	0.02795774290493451	33.27474309967409	15.26947653401741	-1.606918285625369	-3.504357873346198	-640.699127439527	-42.17272333520179	-23.13237923961848	-1.107925623048295	-1.290844630976252	-0.7272409705586769	6.260843559821157	-0.5719250049498515	1.809821755661833	-4.964521080465191	5.7374953483283	5.737495348327453	0.6547879961004295	-0.008233551650877314	0.7949615513467198	-0.3281728524934445	-5.572595802830919e-08	-1.667451161121286e-07	1.624167742423761e-07	4.44074162587023e-08	-2.871163511476187e-07	-1.260174770814097e-07	-3.021616167890121e-08
